#N canvas 0 23 677 504 10;
#X msg 197 335 disconnect;
#X obj 150 367 netsend -u -b;
#X obj 150 197 list prepend send;
#X obj 150 220 list trim;
#X msg 197 313 connect localhost 7401;
#X obj 150 173 oscformat movuino;
#X connect 0 0 1 0;
#X connect 2 0 3 0;
#X connect 3 0 1 0;
#X connect 4 0 1 0;
#X connect 5 0 2 0;
